# xmcd
#
# Track frame offsets:
#	150
#	13123
#	26854
#	43167
#	56616
#	69167
#	83657
#	97716
#	110836
#	128905
#	143411
#	154385
#	167675
#	179121
#
# Disc length: 2571 seconds
#
# Revision: 0
# Processed by: cddbd v1.5.2PL0 Copyright (c) Steve Scherf et al.
# Submitted via: EasyCDDAExtractor 16.0.6.1
#
DISCID=bb0a090e
DTITLE=Various Artist - Η ΚΑΛΥΤΕΡΗ ΜΟΥΣΙΚΗ BLUES [CD4)
DYEAR=2000
DGENRE=
TTITLE0=BILLIE HOLIDAY - GUILTY
TTITLE1=MUDDY WATERS - I WANT YOU TO LOVE ME
TTITLE2=NINA SIMONE - MY BABY JUST CARES FOR ME
TTITLE3=SONNY BOY WILLIAMSON - THE BIG BOAT
TTITLE4=SARAH VAUGHAN - I COULD MAKE YOU LOVE ME
TTITLE5=ELLA FITZGERALD - I'M MAKING BELIEVE
TTITLE6=BILLIE HOLIDAY - NO GOOD MAN
TTITLE7=ELLA FITZGERALD - YOU WON'T BE SATISFIED
TTITLE8=NINA SIMONE - FOR ALL WE KNOW
TTITLE9=BILLIE HOLIDAY - EASY LIVING
TTITLE10=MUDDY WATERS - DIAMONDS AT YOUR FEET
TTITLE11=SONNY BOY WILLIAMSON - STOP BREAKING DOWN
TTITLE12=SARAH VAUGHAN - INTERLUDE
TTITLE13=NINA SIMONE - CENTRAL PARK BLUES
EXTD=
EXTT0=
EXTT1=
EXTT2=
EXTT3=
EXTT4=
EXTT5=
EXTT6=
EXTT7=
EXTT8=
EXTT9=
EXTT10=
EXTT11=
EXTT12=
EXTT13=
PLAYORDER=
